<svg width="30" height="30" viewBox="0 0 30 30" fill="none" xmlns="http://www.w3.org/2000/svg">
<path d="M29.6328 28.002C29.7461 28.1076 29.837 28.235 29.9001 28.3765C29.9632 28.5181 29.9971 28.6709 29.9998 28.8258C30.0026 28.9807 29.9741 29.1346 29.916 29.2783C29.858 29.422 29.7716 29.5525 29.662 29.662C29.5525 29.7716 29.422 29.858 29.2783 29.916C29.1346 29.9741 28.9807 30.0026 28.8258 29.9998C28.6709 29.9971 28.5181 29.9632 28.3765 29.9001C28.235 29.837 28.1076 29.7461 28.002 29.6328L14.9712 16.6039L1.94045 29.6328C1.72172 29.8366 1.43242 29.9475 1.13349 29.9423C0.834566 29.937 0.549358 29.8159 0.337954 29.6045C0.126549 29.3931 0.00545394 29.1079 0.000179765 28.8089C-0.00509441 28.51 0.105864 28.2207 0.309679 28.002L13.3385 14.9712L0.309679 1.94045C0.105864 1.72172 -0.00509441 1.43242 0.000179765 1.13349C0.00545394 0.834566 0.126549 0.549358 0.337954 0.337954C0.549358 0.126549 0.834566 0.00545394 1.13349 0.000179765C1.43242 -0.00509441 1.72172 0.105864 1.94045 0.309679L14.9712 13.3385L28.002 0.309679C28.2207 0.105864 28.51 -0.00509441 28.8089 0.000179765C29.1079 0.00545394 29.3931 0.126549 29.6045 0.337954C29.8159 0.549358 29.937 0.834566 29.9423 1.13349C29.9475 1.43242 29.8366 1.72172 29.6328 1.94045L16.6039 14.9712L29.6328 28.002Z" fill="white"/>
</svg>
